<svg version="1.1" id="Layer_1" xmlns="http://www.w3.org/2000/svg" xmlns:xlink="http://www.w3.org/1999/xlink" x="0px" y="0px"
	 width="100%" viewBox="0 0 500 500" enable-background="new 0 0 500 500" xml:space="preserve">
<path fill="#FFFFFE" opacity="1.000000" stroke="none" 
	d="
M230.000000,501.000000 
	C153.333359,501.000000 77.166702,501.000000 1.000041,501.000000 
	C1.000027,334.333405 1.000027,167.666779 1.000014,1.000130 
	C167.666565,1.000087 334.333130,1.000087 500.999756,1.000043 
	C500.999847,167.666519 500.999847,334.333038 500.999939,500.999786 
	C410.833344,501.000000 320.666656,501.000000 230.000000,501.000000 
M326.997498,376.352875 
	C326.981812,374.895050 326.966125,373.437256 326.857941,371.323273 
	C324.393433,368.194397 321.211823,369.311401 319.958038,371.637482 
	C318.973999,373.463104 320.368225,376.570679 320.705933,379.108765 
	C322.792236,378.428345 324.878510,377.747925 326.997498,376.352875 
M419.686157,174.217804 
	C425.218811,170.491104 428.369537,165.138992 429.971893,158.819839 
	C431.597748,152.407974 433.058258,145.954178 434.713928,139.003418 
	C426.400055,139.896881 418.177917,140.542709 410.048248,141.790970 
	C407.417664,142.194870 404.608063,143.711594 402.602264,145.520004 
	C392.842834,154.319031 385.070618,164.645401 380.716858,177.166000 
	C378.158569,184.523056 383.178802,190.012329 390.518768,187.322525 
	C400.285248,183.743500 409.595978,178.920990 419.686157,174.217804 
M394.816589,261.566315 
	C396.549957,258.045105 398.605255,254.643204 399.961456,250.982269 
	C406.154938,234.263351 402.554016,218.960037 392.616272,204.804565 
	C389.464233,200.314728 385.128845,196.320114 379.391815,197.478729 
	C373.338165,198.701355 370.888092,204.344955 370.159393,209.915726 
	C368.213867,224.788528 372.182709,237.735611 383.395691,248.295883 
	C387.452271,252.116318 390.686615,256.809814 394.816589,261.566315 
M309.966248,170.530014 
	C307.754456,171.787460 305.542694,173.044907 302.983856,174.499649 
	C307.575714,178.618637 311.542908,182.421646 315.771606,185.907410 
	C320.828369,190.075729 326.872498,192.779984 333.323303,191.685516 
	C344.098145,189.857407 354.717133,187.079727 365.360596,184.530106 
	C368.005005,183.896652 368.507477,182.078476 367.177979,179.524506 
	C363.620941,172.691544 358.190277,167.949036 351.091827,165.305649 
	C336.819672,159.990891 323.064331,160.053772 309.966248,170.530014 
M380.021698,138.638550 
	C376.122253,132.349304 372.222809,126.060059 367.717010,118.792839 
	C365.246979,124.126633 363.457428,128.208191 361.488281,132.201187 
	C356.160522,143.004608 357.556549,153.429169 362.983978,163.722916 
	C365.287262,168.091309 369.125214,172.790924 373.313843,171.664627 
	C376.624451,170.774429 380.218262,165.074753 380.777191,161.101700 
	C381.771790,154.031937 380.565002,146.652496 380.021698,138.638550 
M261.354034,307.497437 
	C261.354034,305.789337 261.354034,304.081238 261.354034,302.373138 
	C261.771393,302.086517 262.188782,301.799896 262.606140,301.513275 
	C265.636017,310.851074 270.884460,316.005981 280.773560,312.324097 
	C280.773560,302.711700 280.773560,293.119415 280.773560,283.268311 
	C277.265564,283.268311 273.288635,282.145233 270.934326,283.617249 
	C268.988068,284.834167 268.958801,289.117065 268.033081,292.198059 
	C265.915039,289.047668 264.551208,284.841125 261.794403,283.501740 
	C258.744995,282.020233 254.420471,283.163269 250.548553,283.163269 
	C250.548553,293.380432 250.548553,303.085052 250.548553,312.876404 
	C254.213745,312.876404 257.522522,312.876404 261.155640,312.876404 
	C261.230347,311.301758 261.299500,309.843689 261.354034,307.497437 
M195.649918,282.885803 
	C193.005615,282.949005 190.286224,282.637177 187.731705,283.148712 
	C181.185059,284.459717 176.475586,289.913361 175.909042,296.300079 
	C175.272797,303.472595 178.535675,309.239471 184.830170,312.067657 
	C193.906128,316.145538 204.655548,312.216217 207.913437,303.629852 
	C211.319824,294.652130 206.662613,286.277039 195.649918,282.885803 
M239.932571,309.406403 
	C246.490372,301.353729 243.095734,292.112396 243.771698,283.258545 
	C239.758469,283.258545 236.466003,283.258545 232.736023,283.258545 
	C232.736023,287.730591 232.796417,292.030304 232.714249,296.327240 
	C232.661850,299.067017 233.218491,302.774200 229.171555,302.719330 
	C225.487488,302.669342 225.976349,299.193390 225.964310,296.568146 
	C225.944092,292.155792 225.958771,287.743256 225.958771,283.450592 
	C221.830704,283.450592 218.444138,283.450592 214.862274,283.450592 
	C214.862274,288.468018 214.953827,293.116211 214.839615,297.759308 
	C214.689346,303.867584 216.458069,309.050262 222.187714,311.895447 
	C228.218414,314.890015 234.083847,314.212982 239.932571,309.406403 
M171.826462,311.789978 
	C169.023834,302.286072 166.221191,292.782166 163.355881,283.065674 
	C159.187347,283.065674 155.371964,282.943359 151.573563,283.143402 
	C150.492645,283.200348 148.765671,283.979279 148.513351,284.792694 
	C145.648911,294.026825 143.013397,303.332001 139.983398,313.765594 
	C145.150055,311.331085 151.272644,316.535278 153.899765,308.991516 
	C155.328781,308.991516 156.807999,308.991516 158.476700,308.991516 
	C159.012589,310.235840 159.580490,311.554504 160.053009,312.651703 
	C164.138657,312.651703 167.936508,312.651703 171.826462,311.789978 
M111.195007,294.601776 
	C109.493614,300.606842 107.792221,306.611877 106.020462,312.865326 
	C110.261909,312.865326 114.068291,312.865326 117.825432,312.865326 
	C120.151299,307.553802 121.840256,307.389404 125.354500,311.920654 
	C125.781410,312.471100 126.681084,312.929077 127.376518,312.950653 
	C130.768814,313.055847 134.166168,312.998230 137.885986,312.998230 
	C135.322113,304.181396 132.721329,296.117584 130.699539,287.911072 
	C129.699432,283.851715 127.771561,282.847900 123.802872,282.977875 
	C114.622360,283.278412 114.615387,283.059845 112.053497,291.940552 
	C111.869400,292.578735 111.679726,293.215302 111.195007,294.601776 
M336.960571,304.356171 
	C336.195007,307.105408 335.429413,309.854675 334.584320,312.889465 
	C338.993896,312.889465 342.623566,312.889465 345.444305,312.889465 
	C347.188629,311.247559 348.364288,309.256073 349.741272,309.105499 
	C350.998199,308.968048 352.450592,310.859009 353.861298,311.788605 
	C354.590820,312.269318 355.404083,312.916687 356.201508,312.949188 
	C359.437897,313.081207 362.682770,313.004059 366.405548,313.004059 
	C363.373138,302.665588 360.541718,293.012299 357.707764,283.350464 
	C352.707672,283.350464 347.973267,283.350464 343.137451,283.350464 
	C341.083008,290.231995 339.095062,296.890625 336.960571,304.356171 
M76.058128,285.703613 
	C76.058128,287.988495 76.058128,290.273407 76.058128,293.024536 
	C78.919853,293.024536 81.322777,293.024536 84.200645,293.024536 
	C84.200645,299.886139 84.200645,306.286438 84.200645,312.769104 
	C88.106651,312.769104 91.520844,312.769104 95.394722,312.769104 
	C95.394722,306.130859 95.394722,299.727112 95.394722,293.226288 
	C98.253647,293.044098 100.667686,292.890289 103.120743,292.733948 
	C103.120743,289.416138 103.120743,286.471039 103.120743,283.083374 
	C94.600456,283.083374 86.319382,283.044769 78.040352,283.156799 
	C77.379890,283.165741 76.733513,284.215454 76.058128,285.703613 
M323.006866,312.318695 
	C321.019165,300.948730 328.831543,292.803955 333.315796,282.963348 
	C326.679688,283.621216 319.042297,279.912109 318.007172,291.160156 
	C313.776794,282.094879 313.432861,281.946991 302.263824,283.616943 
	C306.724426,293.072418 314.786224,301.206818 311.838654,312.923462 
	C315.955475,312.923462 319.114899,312.923462 323.006866,312.318695 
M396.351929,286.704895 
	C396.237244,285.575989 396.122589,284.447083 396.009613,283.334961 
	C387.010895,283.334961 378.246338,283.334961 369.367188,283.334961 
	C369.367188,286.648010 369.367188,289.698334 369.367188,292.826324 
	C372.088104,292.964874 374.501465,293.087769 377.379517,293.234344 
	C377.379517,300.069763 377.379517,306.467926 377.379517,312.792664 
	C381.173492,312.792664 384.457611,312.792664 388.247742,312.792664 
	C388.247742,306.184662 388.247742,299.784729 388.247742,293.229614 
	C391.168457,293.056000 393.591248,292.911987 396.354126,292.747772 
	C396.354126,290.863373 396.354126,289.216949 396.351929,286.704895 
M363.678497,206.089706 
	C366.473083,202.335190 368.539764,198.167252 366.177643,193.681793 
	C364.713013,190.900543 356.949951,191.833679 352.231598,194.853210 
	C352.091766,194.942703 351.956421,195.040512 351.811096,195.120041 
	C343.869781,199.466568 340.385315,206.718460 338.640717,215.165390 
	C352.493561,215.644806 357.381744,213.946716 363.678497,206.089706 
M417.169128,201.854172 
	C421.082214,199.759140 424.995300,197.664124 429.401611,195.305038 
	C419.332916,187.397614 403.398621,186.472916 391.882111,192.266113 
	C398.200439,202.057739 404.817810,204.700272 417.169128,201.854172 
M404.680939,283.077087 
	C403.517639,283.981628 401.370972,284.857880 401.343964,285.795135 
	C401.087585,294.699707 401.191071,303.614655 401.191071,312.768372 
	C405.080719,312.768372 408.500336,312.768372 412.153839,312.768372 
	C412.153839,302.979919 412.153839,293.254517 412.153839,283.075928 
	C409.830292,283.075928 407.710052,283.075928 404.680939,283.077087 
M298.771606,307.334045 
	C298.771606,299.418121 298.771606,291.502228 298.771606,283.331268 
	C294.860321,283.331268 291.461365,283.331268 287.786957,283.331268 
	C287.786957,293.169800 287.786957,302.884338 287.786957,312.810089 
	C291.399200,312.810089 294.808655,312.810089 298.520752,312.810089 
	C298.611176,311.184601 298.691711,309.737457 298.771606,307.334045 
M179.110931,375.508728 
	C179.347580,381.665009 183.718506,378.219604 186.024673,378.893463 
	C186.192566,376.424042 186.709717,374.181915 186.362549,372.082764 
	C186.121597,370.625885 184.948761,368.854553 183.690002,368.220062 
	C182.996689,367.870605 180.900192,369.319580 180.106476,370.434753 
	C179.329056,371.527069 179.401917,373.224518 179.110931,375.508728 
M362.783142,369.477112 
	C356.872375,369.478973 356.057251,371.094330 358.162079,378.780762 
	C360.184143,378.780762 362.228973,378.780762 363.581482,378.780762 
	C363.654602,377.121552 363.773315,375.844299 363.751373,374.569458 
	C363.723236,372.937134 363.581818,371.306763 362.783142,369.477112 
M251.116760,376.329773 
	C252.275711,381.633209 255.716263,378.393707 258.087524,378.673431 
	C257.751434,375.464783 257.455902,372.643219 257.135132,369.580780 
	C251.291534,368.840881 251.205307,368.913086 251.116760,376.329773 
M289.167725,371.944305 
	C290.066467,371.944305 290.965240,371.944305 291.863983,371.944305 
	C291.942474,371.401703 292.020996,370.859131 292.099487,370.316528 
	C290.182709,370.160400 287.441132,369.157745 286.535828,370.039795 
	C285.050720,371.486755 283.525940,374.880096 284.262604,376.135712 
	C285.265900,377.845734 288.313690,378.645233 290.629791,379.105042 
	C291.255463,379.229248 292.404785,376.715942 293.592499,375.013763 
	C290.730469,375.577911 289.124146,375.894562 287.517792,376.211182 
	C287.827972,374.841797 288.138123,373.472443 289.167725,371.944305 
M192.860336,376.134766 
	C192.951233,376.942383 193.042130,377.749969 193.108963,378.343689 
	C195.417374,378.343689 197.547806,378.343689 199.398529,378.343689 
	C199.650497,377.074921 200.428360,375.547028 200.078949,374.347473 
	C199.577393,372.625610 198.561295,370.143433 197.227722,369.733551 
	C191.812454,368.069244 193.021988,372.354248 192.860336,376.134766 
M138.939301,377.896637 
	C141.913544,379.608704 145.142426,380.334778 147.279037,377.169617 
	C148.132156,375.905792 147.818756,372.465271 146.760361,371.627258 
	C145.187912,370.382263 142.004669,369.586548 140.371338,370.379639 
	C137.992249,371.534851 136.042343,374.185486 138.939301,377.896637 
M298.042236,373.639740 
	C298.132294,375.330475 298.222351,377.021179 298.264130,377.805267 
	C301.122955,378.036377 303.154419,378.200592 305.678711,378.404633 
	C305.475616,376.554810 305.672699,374.321045 304.885223,372.517059 
	C304.307922,371.194427 302.496887,369.777252 301.125000,369.656128 
	C300.203766,369.574799 299.089050,371.684998 298.042236,373.639740 
M338.635284,369.722717 
	C335.138580,368.881226 332.056885,369.842041 331.279755,373.371704 
	C330.946442,374.885773 332.840424,378.144745 334.245148,378.491180 
	C336.323059,379.003632 339.532135,378.336761 341.066956,376.898956 
	C343.831848,374.308838 341.636261,371.920837 338.635284,369.722717 
M156.801575,369.551819 
	C153.429825,370.532074 151.322723,372.815125 153.021469,376.070984 
	C153.842590,377.644714 156.931915,378.890137 158.872025,378.736877 
	C160.262085,378.627075 162.821228,375.290863 162.462524,374.542145 
	C161.492889,372.518188 159.243790,371.107178 156.801575,369.551819 
M169.824692,377.342957 
	C172.660294,376.219360 176.689087,375.677673 174.185623,371.178284 
	C173.580765,370.091156 171.006042,369.770813 169.330078,369.752655 
	C168.533859,369.743988 167.033905,371.285858 167.047607,372.105347 
	C167.084946,374.341492 167.757858,376.566986 168.179001,378.796722 
	C168.538742,378.489014 168.898483,378.181335 169.824692,377.342957 
M277.735382,378.602264 
	C278.307465,378.510376 278.879547,378.418488 279.451630,378.326630 
	C278.263092,375.312134 277.074585,372.297607 275.886047,369.283081 
	C275.278687,369.382385 274.671326,369.481659 274.063965,369.580933 
	C272.789124,372.526489 271.514282,375.472046 270.345886,378.171661 
	C273.142853,378.171661 275.153503,378.171661 277.735382,378.602264 
M130.360336,369.444458 
	C129.401794,369.684021 128.039978,369.612122 127.565948,370.225891 
	C126.471443,371.643036 125.254990,373.358490 125.152298,375.018768 
	C125.076828,376.238953 126.440437,378.250916 127.609055,378.672302 
	C129.166824,379.234039 131.157532,378.595154 134.237671,378.384918 
	C131.045166,376.417419 129.418243,375.414734 127.791313,374.412079 
	C129.430771,373.365845 131.070236,372.319611 132.946655,371.122131 
	C132.435913,370.685486 131.751648,370.100464 130.360336,369.444458 
M208.372513,370.808563 
	C207.210144,373.340881 206.047775,375.873169 205.078903,377.983948 
	C208.631927,377.983948 211.494522,377.983948 215.641418,377.983948 
	C213.138290,375.132751 211.013840,372.712891 208.372513,370.808563 
M241.613953,379.002686 
	C244.818359,377.073547 246.379150,373.745300 244.818329,369.237793 
	C244.212708,370.788727 243.607086,372.339691 243.001465,373.890656 
	C242.525421,373.723053 242.049377,373.555481 241.573334,373.387878 
	C241.010269,371.941406 240.447189,370.494934 239.884125,369.048431 
	C239.188171,369.577576 238.492203,370.106689 237.796249,370.635834 
	C238.845749,373.308411 239.895248,375.980988 241.613953,379.002686 
M346.762207,371.657990 
	C346.762207,374.047058 346.762207,376.436157 346.762207,379.188171 
	C348.965820,379.056000 350.647858,378.955078 351.417236,378.908936 
	C350.505768,376.205841 349.808502,373.857330 348.872437,371.608276 
	C348.693909,371.179413 347.572388,371.143066 346.762207,371.657990 
z"/>
<path fill="#94CE3B" opacity="1.000000" stroke="none" 
	d="
M419.394348,174.425232 
	C409.595978,178.920990 400.285248,183.743500 390.518768,187.322525 
	C383.178802,190.012329 378.158569,184.523056 380.716858,177.166000 
	C385.070618,164.645401 392.842834,154.319031 402.602264,145.520004 
	C404.608063,143.711594 407.417664,142.194870 410.048248,141.790970 
	C418.177917,140.542709 426.400055,139.896881 434.713928,139.003418 
	C433.058258,145.954178 431.597748,152.407974 429.971893,158.819839 
	C428.369537,165.138992 425.218811,170.491104 419.394348,174.425232 
z"/>
<path fill="#94CE3B" opacity="1.000000" stroke="none" 
	d="
M394.556366,261.335632 
	C390.686615,256.809814 387.452271,252.116318 383.395691,248.295883 
	C372.182709,237.735611 368.213867,224.788528 370.159393,209.915726 
	C370.888092,204.344955 373.338165,198.701355 379.391815,197.478729 
	C385.128845,196.320114 389.464233,200.314728 392.616272,204.804565 
	C402.554016,218.960037 406.154938,234.263351 399.961456,250.982269 
	C398.605255,254.643204 396.549957,258.045105 394.556366,261.335632 
z"/>
<path fill="#94CE3B" opacity="1.000000" stroke="none" 
	d="
M310.258789,170.314697 
	C323.064331,160.053772 336.819672,159.990891 351.091827,165.305649 
	C358.190277,167.949036 363.620941,172.691544 367.177979,179.524506 
	C368.507477,182.078476 368.005005,183.896652 365.360596,184.530106 
	C354.717133,187.079727 344.098145,189.857407 333.323303,191.685516 
	C326.872498,192.779984 320.828369,190.075729 315.771606,185.907410 
	C311.542908,182.421646 307.575714,178.618637 302.983856,174.499649 
	C305.542694,173.044907 307.754456,171.787460 310.258789,170.314697 
z"/>
<path fill="#95CE3D" opacity="1.000000" stroke="none" 
	d="
M380.150330,139.020569 
	C380.565002,146.652496 381.771790,154.031937 380.777191,161.101700 
	C380.218262,165.074753 376.624451,170.774429 373.313843,171.664627 
	C369.125214,172.790924 365.287262,168.091309 362.983978,163.722916 
	C357.556549,153.429169 356.160522,143.004608 361.488281,132.201187 
	C363.457428,128.208191 365.246979,124.126633 367.717010,118.792839 
	C372.222809,126.060059 376.122253,132.349304 380.150330,139.020569 
z"/>
<path fill="#445031" opacity="1.000000" stroke="none" 
	d="
M261.361359,307.941528 
	C261.299500,309.843689 261.230347,311.301758 261.155640,312.876404 
	C257.522522,312.876404 254.213745,312.876404 250.548553,312.876404 
	C250.548553,303.085052 250.548553,293.380432 250.548553,283.163269 
	C254.420471,283.163269 258.744995,282.020233 261.794403,283.501740 
	C264.551208,284.841125 265.915039,289.047668 268.033081,292.198059 
	C268.958801,289.117065 268.988068,284.834167 270.934326,283.617249 
	C273.288635,282.145233 277.265564,283.268311 280.773560,283.268311 
	C280.773560,293.119415 280.773560,302.711700 280.773560,312.324097 
	C270.884460,316.005981 265.636017,310.851074 262.606140,301.513275 
	C262.188782,301.799896 261.771393,302.086517 261.354034,302.373138 
	C261.354034,304.081238 261.354034,305.789337 261.361359,307.941528 
z"/>
<path fill="#445031" opacity="1.000000" stroke="none" 
	d="
M196.042801,282.937561 
	C206.662613,286.277039 211.319824,294.652130 207.913437,303.629852 
	C204.655548,312.216217 193.906128,316.145538 184.830170,312.067657 
	C178.535675,309.239471 175.272797,303.472595 175.909042,296.300079 
	C176.475586,289.913361 181.185059,284.459717 187.731705,283.148712 
	C190.286224,282.637177 193.005615,282.949005 196.042801,282.937561 
M190.856125,293.257538 
	C189.871338,294.476990 187.994553,295.778381 188.097397,296.897949 
	C188.281174,298.898468 189.225372,301.327606 190.704361,302.518829 
	C191.556580,303.205231 195.068863,302.324585 195.625107,301.243988 
	C196.502350,299.539764 196.366287,296.918945 195.728867,294.994171 
	C195.402420,294.008392 193.058258,293.690826 190.856125,293.257538 
z"/>
<path fill="#445131" opacity="1.000000" stroke="none" 
	d="
M239.670288,309.664368 
	C234.083847,314.212982 228.218414,314.890015 222.187714,311.895447 
	C216.458069,309.050262 214.689346,303.867584 214.839615,297.759308 
	C214.953827,293.116211 214.862274,288.468018 214.862274,283.450592 
	C218.444138,283.450592 221.830704,283.450592 225.958771,283.450592 
	C225.958771,287.743256 225.944092,292.155792 225.964310,296.568146 
	C225.976349,299.193390 225.487488,302.669342 229.171555,302.719330 
	C233.218491,302.774200 232.661850,299.067017 232.714249,296.327240 
	C232.796417,292.030304 232.736023,287.730591 232.736023,283.258545 
	C236.466003,283.258545 239.758469,283.258545 243.771698,283.258545 
	C243.095734,292.112396 246.490372,301.353729 239.670288,309.664368 
z"/>
<path fill="#445131" opacity="1.000000" stroke="none" 
	d="
M171.780411,312.220825 
	C167.936508,312.651703 164.138657,312.651703 160.053009,312.651703 
	C159.580490,311.554504 159.012589,310.235840 158.476700,308.991516 
	C156.807999,308.991516 155.328781,308.991516 153.899765,308.991516 
	C151.272644,316.535278 145.150055,311.331085 139.983398,313.765594 
	C143.013397,303.332001 145.648911,294.026825 148.513351,284.792694 
	C148.765671,283.979279 150.492645,283.200348 151.573563,283.143402 
	C155.371964,282.943359 159.187347,283.065674 163.355881,283.065674 
	C166.221191,292.782166 169.023834,302.286072 171.780411,312.220825 
z"/>
<path fill="#445131" opacity="1.000000" stroke="none" 
	d="
M111.343826,294.227173 
	C111.679726,293.215302 111.869400,292.578735 112.053497,291.940552 
	C114.615387,283.059845 114.622360,283.278412 123.802872,282.977875 
	C127.771561,282.847900 129.699432,283.851715 130.699539,287.911072 
	C132.721329,296.117584 135.322113,304.181396 137.885986,312.998230 
	C134.166168,312.998230 130.768814,313.055847 127.376518,312.950653 
	C126.681084,312.929077 125.781410,312.471100 125.354500,311.920654 
	C121.840256,307.389404 120.151299,307.553802 117.825432,312.865326 
	C114.068291,312.865326 110.261909,312.865326 106.020462,312.865326 
	C107.792221,306.611877 109.493614,300.606842 111.343826,294.227173 
z"/>
<path fill="#445031" opacity="1.000000" stroke="none" 
	d="
M337.033875,303.952728 
	C339.095062,296.890625 341.083008,290.231995 343.137451,283.350464 
	C347.973267,283.350464 352.707672,283.350464 357.707764,283.350464 
	C360.541718,293.012299 363.373138,302.665588 366.405548,313.004059 
	C362.682770,313.004059 359.437897,313.081207 356.201508,312.949188 
	C355.404083,312.916687 354.590820,312.269318 353.861298,311.788605 
	C352.450592,310.859009 350.998199,308.968048 349.741272,309.105499 
	C348.364288,309.256073 347.188629,311.247559 345.444305,312.889465 
	C342.623566,312.889465 338.993896,312.889465 334.584320,312.889465 
	C335.429413,309.854675 336.195007,307.105408 337.033875,303.952728 
z"/>
<path fill="#445031" opacity="1.000000" stroke="none" 
	d="
M76.069359,285.242554 
	C76.733513,284.215454 77.379890,283.165741 78.040352,283.156799 
	C86.319382,283.044769 94.600456,283.083374 103.120743,283.083374 
	C103.120743,286.471039 103.120743,289.416138 103.120743,292.733948 
	C100.667686,292.890289 98.253647,293.044098 95.394722,293.226288 
	C95.394722,299.727112 95.394722,306.130859 95.394722,312.769104 
	C91.520844,312.769104 88.106651,312.769104 84.200645,312.769104 
	C84.200645,306.286438 84.200645,299.886139 84.200645,293.024536 
	C81.322777,293.024536 78.919853,293.024536 76.058128,293.024536 
	C76.058128,290.273407 76.058128,287.988495 76.069359,285.242554 
z"/>
<path fill="#455133" opacity="1.000000" stroke="none" 
	d="
M322.640594,312.621094 
	C319.114899,312.923462 315.955475,312.923462 311.838654,312.923462 
	C314.786224,301.206818 306.724426,293.072418 302.263824,283.616943 
	C313.432861,281.946991 313.776794,282.094879 318.007172,291.160156 
	C319.042297,279.912109 326.679688,283.621216 333.315796,282.963348 
	C328.831543,292.803955 321.019165,300.948730 322.640594,312.621094 
z"/>
<path fill="#445031" opacity="1.000000" stroke="none" 
	d="
M396.353027,287.137695 
	C396.354126,289.216949 396.354126,290.863373 396.354126,292.747772 
	C393.591248,292.911987 391.168457,293.056000 388.247742,293.229614 
	C388.247742,299.784729 388.247742,306.184662 388.247742,312.792664 
	C384.457611,312.792664 381.173492,312.792664 377.379517,312.792664 
	C377.379517,306.467926 377.379517,300.069763 377.379517,293.234344 
	C374.501465,293.087769 372.088104,292.964874 369.367188,292.826324 
	C369.367188,289.698334 369.367188,286.648010 369.367188,283.334961 
	C378.246338,283.334961 387.010895,283.334961 396.009613,283.334961 
	C396.122589,284.447083 396.237244,285.575989 396.353027,287.137695 
z"/>
<path fill="#96CE3F" opacity="1.000000" stroke="none" 
	d="
M363.451141,206.376266 
	C357.381744,213.946716 352.493561,215.644806 338.640717,215.165390 
	C340.385315,206.718460 343.869781,199.466568 351.811096,195.120041 
	C351.956421,195.040512 352.091766,194.942703 352.231598,194.853210 
	C356.949951,191.833679 364.713013,190.900543 366.177643,193.681793 
	C368.539764,198.167252 366.473083,202.335190 363.451141,206.376266 
z"/>
<path fill="#96CE3F" opacity="1.000000" stroke="none" 
	d="
M416.768921,201.949295 
	C404.817810,204.700272 398.200439,202.057739 391.882111,192.266113 
	C403.398621,186.472916 419.332916,187.397614 429.401611,195.305038 
	C424.995300,197.664124 421.082214,199.759140 416.768921,201.949295 
z"/>
<path fill="#455133" opacity="1.000000" stroke="none" 
	d="
M405.135376,283.076508 
	C407.710052,283.075928 409.830292,283.075928 412.153839,283.075928 
	C412.153839,293.254517 412.153839,302.979919 412.153839,312.768372 
	C408.500336,312.768372 405.080719,312.768372 401.191071,312.768372 
	C401.191071,303.614655 401.087585,294.699707 401.343964,285.795135 
	C401.370972,284.857880 403.517639,283.981628 405.135376,283.076508 
z"/>
<path fill="#475334" opacity="1.000000" stroke="none" 
	d="
M298.771912,307.812195 
	C298.691711,309.737457 298.611176,311.184601 298.520752,312.810089 
	C294.808655,312.810089 291.399200,312.810089 287.786957,312.810089 
	C287.786957,302.884338 287.786957,293.169800 287.786957,283.331268 
	C291.461365,283.331268 294.860321,283.331268 298.771606,283.331268 
	C298.771606,291.502228 298.771606,299.418121 298.771912,307.812195 
z"/>
<path fill="#ACC97E" opacity="1.000000" stroke="none" 
	d="
M179.106262,375.082550 
	C179.401917,373.224518 179.329056,371.527069 180.106476,370.434753 
	C180.900192,369.319580 182.996689,367.870605 183.690002,368.220062 
	C184.948761,368.854553 186.121597,370.625885 186.362549,372.082764 
	C186.709717,374.181915 186.192566,376.424042 186.024673,378.893463 
	C183.718506,378.219604 179.347580,381.665009 179.106262,375.082550 
z"/>
<path fill="#ACC97E" opacity="1.000000" stroke="none" 
	d="
M363.136169,369.576355 
	C363.581818,371.306763 363.723236,372.937134 363.751373,374.569458 
	C363.773315,375.844299 363.654602,377.121552 363.581482,378.780762 
	C362.228973,378.780762 360.184143,378.780762 358.162079,378.780762 
	C356.057251,371.094330 356.872375,369.478973 363.136169,369.576355 
z"/>
<path fill="#B7D087" opacity="1.000000" stroke="none" 
	d="
M251.116623,375.888885 
	C251.205307,368.913086 251.291534,368.840881 257.135132,369.580780 
	C257.455902,372.643219 257.751434,375.464783 258.087524,378.673431 
	C255.716263,378.393707 252.275711,381.633209 251.116623,375.888885 
z"/>
<path fill="#B7D087" opacity="1.000000" stroke="none" 
	d="
M288.808014,372.023682 
	C288.138123,373.472443 287.827972,374.841797 287.517792,376.211182 
	C289.124146,375.894562 290.730469,375.577911 293.592499,375.013763 
	C292.404785,376.715942 291.255463,379.229248 290.629791,379.105042 
	C288.313690,378.645233 285.265900,377.845734 284.262604,376.135712 
	C283.525940,374.880096 285.050720,371.486755 286.535828,370.039795 
	C287.441132,369.157745 290.182709,370.160400 292.099487,370.316528 
	C292.020996,370.859131 291.942474,371.401703 291.863983,371.944305 
	C290.965240,371.944305 290.066467,371.944305 288.808014,372.023682 
z"/>
<path fill="#ACC97E" opacity="1.000000" stroke="none" 
	d="
M192.860687,375.704742 
	C193.021988,372.354248 191.812454,368.069244 197.227722,369.733551 
	C198.561295,370.143433 199.577393,372.625610 200.078949,374.347473 
	C200.428360,375.547028 199.650497,377.074921 199.398529,378.343689 
	C197.547806,378.343689 195.417374,378.343689 193.108963,378.343689 
	C193.042130,377.749969 192.951233,376.942383 192.860687,375.704742 
z"/>
<path fill="#B7D087" opacity="1.000000" stroke="none" 
	d="
M138.675705,377.624390 
	C136.042343,374.185486 137.992249,371.534851 140.371338,370.379639 
	C142.004669,369.586548 145.187912,370.382263 146.760361,371.627258 
	C147.818756,372.465271 148.132156,375.905792 147.279037,377.169617 
	C145.142426,380.334778 141.913544,379.608704 138.675705,377.624390 
M145.738220,373.718811 
	C144.103745,373.422638 142.469269,373.126465 140.834778,372.830292 
	C141.018677,374.102081 141.202560,375.373840 141.386459,376.645630 
	C142.869049,375.926605 144.351639,375.207550 145.738220,373.718811 
z"/>
<path fill="#ACC97E" opacity="1.000000" stroke="none" 
	d="
M298.051575,373.227234 
	C299.089050,371.684998 300.203766,369.574799 301.125000,369.656128 
	C302.496887,369.777252 304.307922,371.194427 304.885223,372.517059 
	C305.672699,374.321045 305.475616,376.554810 305.678711,378.404633 
	C303.154419,378.200592 301.122955,378.036377 298.264130,377.805267 
	C298.222351,377.021179 298.132294,375.330475 298.051575,373.227234 
z"/>
<path fill="#B7D087" opacity="1.000000" stroke="none" 
	d="
M338.944244,369.903137 
	C341.636261,371.920837 343.831848,374.308838 341.066956,376.898956 
	C339.532135,378.336761 336.323059,379.003632 334.245148,378.491180 
	C332.840424,378.144745 330.946442,374.885773 331.279755,373.371704 
	C332.056885,369.842041 335.138580,368.881226 338.944244,369.903137 
M334.546448,372.580261 
	C333.658630,374.870026 333.500275,377.017639 336.747406,376.918610 
	C337.758636,376.887756 338.723907,375.350098 339.710205,374.502228 
	C338.175629,373.708618 336.641052,372.914978 334.546448,372.580261 
z"/>
<path fill="#ACC97E" opacity="1.000000" stroke="none" 
	d="
M157.151917,369.502411 
	C159.243790,371.107178 161.492889,372.518188 162.462524,374.542145 
	C162.821228,375.290863 160.262085,378.627075 158.872025,378.736877 
	C156.931915,378.890137 153.842590,377.644714 153.021469,376.070984 
	C151.322723,372.815125 153.429825,370.532074 157.151917,369.502411 
M159.786377,372.923462 
	C157.758392,371.152344 155.808731,371.134125 154.860321,373.810547 
	C154.593521,374.563477 155.861389,376.617157 156.773773,376.884399 
	C159.195114,377.593506 160.450653,376.292999 159.786377,372.923462 
z"/>
<path fill="#ACC97E" opacity="1.000000" stroke="none" 
	d="
M169.541458,377.608307 
	C168.898483,378.181335 168.538742,378.489014 168.179001,378.796722 
	C167.757858,376.566986 167.084946,374.341492 167.047607,372.105347 
	C167.033905,371.285858 168.533859,369.743988 169.330078,369.752655 
	C171.006042,369.770813 173.580765,370.091156 174.185623,371.178284 
	C176.689087,375.677673 172.660294,376.219360 169.541458,377.608307 
z"/>
<path fill="#ACC97E" opacity="1.000000" stroke="none" 
	d="
M277.449768,378.386963 
	C275.153503,378.171661 273.142853,378.171661 270.345886,378.171661 
	C271.514282,375.472046 272.789124,372.526489 274.063965,369.580933 
	C274.671326,369.481659 275.278687,369.382385 275.886047,369.283081 
	C277.074585,372.297607 278.263092,375.312134 279.451630,378.326630 
	C278.879547,378.418488 278.307465,378.510376 277.449768,378.386963 
z"/>
<path fill="#B7D087" opacity="1.000000" stroke="none" 
	d="
M130.713867,369.479980 
	C131.751648,370.100464 132.435913,370.685486 132.946655,371.122131 
	C131.070236,372.319611 129.430771,373.365845 127.791306,374.412079 
	C129.418243,375.414734 131.045166,376.417419 134.237671,378.384918 
	C131.157532,378.595154 129.166824,379.234039 127.609055,378.672302 
	C126.440437,378.250916 125.076828,376.238953 125.152298,375.018768 
	C125.254990,373.358490 126.471443,371.643036 127.565948,370.225891 
	C128.039978,369.612122 129.401794,369.684021 130.713867,369.479980 
z"/>
<path fill="#ACC97E" opacity="1.000000" stroke="none" 
	d="
M208.630951,370.550781 
	C211.013840,372.712891 213.138290,375.132751 215.641418,377.983948 
	C211.494522,377.983948 208.631927,377.983948 205.078903,377.983948 
	C206.047775,375.873169 207.210144,373.340881 208.630951,370.550781 
z"/>
<path fill="#B7D087" opacity="1.000000" stroke="none" 
	d="
M241.279358,378.828125 
	C239.895248,375.980988 238.845749,373.308411 237.796249,370.635834 
	C238.492203,370.106689 239.188171,369.577576 239.884125,369.048431 
	C240.447189,370.494934 241.010269,371.941406 241.573334,373.387878 
	C242.049377,373.555481 242.525421,373.723053 243.001465,373.890656 
	C243.607086,372.339691 244.212708,370.788727 244.818329,369.237793 
	C246.379150,373.745300 244.818359,377.073547 241.279358,378.828125 
z"/>
<path fill="#ACC97E" opacity="1.000000" stroke="none" 
	d="
M326.964813,377.067474 
	C324.878510,377.747925 322.792236,378.428345 320.705933,379.108765 
	C320.368225,376.570679 318.973999,373.463104 319.958038,371.637482 
	C321.211823,369.311401 324.393433,368.194397 326.551453,371.637939 
	C323.720734,370.948517 321.493134,371.220337 321.115204,374.275513 
	C320.689667,377.715210 323.462463,376.991577 325.499512,377.021179 
	C325.988098,377.028290 326.476379,377.051605 326.964813,377.067474 
z"/>
<path fill="#B7D087" opacity="1.000000" stroke="none" 
	d="
M346.824066,371.291809 
	C347.572388,371.143066 348.693909,371.179413 348.872437,371.608276 
	C349.808502,373.857330 350.505768,376.205841 351.417236,378.908936 
	C350.647858,378.955078 348.965820,379.056000 346.762207,379.188171 
	C346.762207,376.436157 346.762207,374.047058 346.824066,371.291809 
z"/>
<path fill="#F5FCE7" opacity="1.000000" stroke="none" 
	d="
M326.981140,376.710175 
	C326.476379,377.051605 325.988098,377.028290 325.499512,377.021179 
	C323.462463,376.991577 320.689667,377.715210 321.115204,374.275513 
	C321.493134,371.220337 323.720734,370.948517 326.597656,371.966034 
	C326.966125,373.437256 326.981812,374.895050 326.981140,376.710175 
z"/>
<path fill="#F5FCE7" opacity="1.000000" stroke="none" 
	d="
M191.241058,293.164398 
	C193.058258,293.690826 195.402420,294.008392 195.728867,294.994171 
	C196.366287,296.918945 196.502350,299.539764 195.625107,301.243988 
	C195.068863,302.324585 191.556580,303.205231 190.704361,302.518829 
	C189.225372,301.327606 188.281174,298.898468 188.097397,296.897949 
	C187.994553,295.778381 189.871338,294.476990 191.241058,293.164398 
z"/>
<path fill="#F5FCE7" opacity="1.000000" stroke="none" 
	d="
M145.786224,374.103668 
	C144.351639,375.207550 142.869049,375.926605 141.386459,376.645630 
	C141.202560,375.373840 141.018677,374.102081 140.834778,372.830261 
	C142.469269,373.126465 144.103745,373.422638 145.786224,374.103668 
z"/>
<path fill="#F5FCE7" opacity="1.000000" stroke="none" 
	d="
M334.826477,372.350830 
	C336.641052,372.914978 338.175629,373.708618 339.710205,374.502228 
	C338.723907,375.350098 337.758636,376.887756 336.747406,376.918610 
	C333.500275,377.017639 333.658630,374.870026 334.826477,372.350830 
z"/>
<path fill="#F5FCE7" opacity="1.000000" stroke="none" 
	d="
M159.929596,373.306122 
	C160.450653,376.292999 159.195114,377.593506 156.773773,376.884399 
	C155.861389,376.617157 154.593521,374.563477 154.860321,373.810547 
	C155.808731,371.134125 157.758392,371.152344 159.929596,373.306122 
z"/>
</svg>